<svg id="Layer_1" data-name="Layer 1" xmlns="http://www.w3.org/2000/svg" width="59.076" height="59.076" viewBox="0 0 59.076 59.076">
  <circle id="Ellipse_3" data-name="Ellipse 3" cx="29.538" cy="29.538" r="29.538" fill="#fff"/>
  <path id="Path_19" data-name="Path 19" d="M33.619,57.735A24.073,24.073,0,1,0,9.41,33.663,24.073,24.073,0,0,0,33.619,57.735Z" transform="translate(-4.047 -4.125)" fill="#004fa3" fill-rule="evenodd"/>
  <path id="Path_20" data-name="Path 20" d="M32.462,58.18A25.885,25.885,0,1,1,58.49,32.3,25.885,25.885,0,0,1,32.462,58.18Zm0-48.145a22.408,22.408,0,1,0,.006,0Z" transform="translate(-2.89 -2.757)" fill="#f79239"/>
  <path id="Path_21" data-name="Path 21" d="M20.44,33.29H23.6l.661,14.857h.171l.627-14.857h3.22L26.213,56.314H22.492Z" transform="translate(-8.791 -14.318)" fill="#fff" fill-rule="evenodd"/>
  <path id="Path_22" data-name="Path 22" d="M39.93,45.411V52.82a1.618,1.618,0,0,0,.12.747.416.416,0,0,0,.388.205A.382.382,0,0,0,40.8,53.6a1.829,1.829,0,0,0,.1-.781V47.634h3.334v5.574a3.014,3.014,0,0,1-.838,2.416,4.8,4.8,0,0,1-2.986.724,4.778,4.778,0,0,1-2.986-.7,3,3,0,0,1-.832-2.416V36.242a3.052,3.052,0,0,1,.838-2.451,4.752,4.752,0,0,1,2.981-.7,4.8,4.8,0,0,1,3,.7,3,3,0,0,1,.826,2.451v9.175h-4.3m0-2.553H40.9V36.173a.473.473,0,0,0-.137-.331.439.439,0,0,0-.325-.142.416.416,0,0,0-.388.205,1.55,1.55,0,0,0-.12.729Z" transform="translate(-15.737 -14.232)" fill="#fff" fill-rule="evenodd"/>
  <path id="Path_23" data-name="Path 23" d="M61.094,37.658v4.89H57.748v-6.32a.484.484,0,0,0-.137-.325.4.4,0,0,0-.308-.154.433.433,0,0,0-.4.205,1.573,1.573,0,0,0-.12.735v19.53H53.44V33.258h3.34v.769a2.8,2.8,0,0,1,.9-.7,2.411,2.411,0,0,1,1.071-.251,1.9,1.9,0,0,1,1.8.957A8.241,8.241,0,0,1,61.094,37.658Z" transform="translate(-22.985 -14.224)" fill="#fff" fill-rule="evenodd"/>
  <path id="Path_24" data-name="Path 24" d="M76.663,36.232V56.224H73.318V55.38a2.644,2.644,0,0,1-.9.718,2.445,2.445,0,0,1-1.077.245,1.9,1.9,0,0,1-1.772-.963A7.908,7.908,0,0,1,69,51.744v-5.3a3.419,3.419,0,0,1,.4-1.761,3.7,3.7,0,0,1,1.362-1.237l2.547-1.522v-5.8a.422.422,0,0,0-.137-.3.45.45,0,0,0-.325-.137.422.422,0,0,0-.393.205,1.561,1.561,0,0,0-.12.729v4.291H69V36.232a3.051,3.051,0,0,1,.843-2.451,4.717,4.717,0,0,1,2.981-.7,4.8,4.8,0,0,1,3,.7,3.027,3.027,0,0,1,.838,2.451M73.318,45l-.57.439a1.22,1.22,0,0,0-.3.37,1.066,1.066,0,0,0-.085.456v6.514a1.613,1.613,0,0,0,.1.769.416.416,0,0,0,.393.205.388.388,0,0,0,.359-.171,1.829,1.829,0,0,0,.1-.781Z" transform="translate(-29.675 -14.228)" fill="#fff" fill-rule="evenodd"/>
</svg>
