<svg xmlns="http://www.w3.org/2000/svg" width="94.556" height="94.556" viewBox="0 0 94.556 94.556">
  <g id="Layer_2" data-name="Layer 2" transform="translate(0 0)">
    <g id="Layer_1" data-name="Layer 1" transform="translate(0 0)">
      <circle id="Ellipse_1" data-name="Ellipse 1" cx="47.278" cy="47.278" r="47.278" fill="#fff"/>
      <path id="Path_1" data-name="Path 1" d="M48.159,86.651A38.53,38.53,0,1,0,9.41,48.12a38.53,38.53,0,0,0,38.749,38.53Z" transform="translate(-0.826 -0.842)" fill-rule="evenodd"/>
      <path id="Path_2" data-name="Path 2" d="M47.923,89.272A41.431,41.431,0,1,1,89.582,47.841,41.431,41.431,0,0,1,47.923,89.272Zm0-77.061a35.873,35.873,0,1,0,.009,0Z" transform="translate(-0.59 -0.563)" fill="#888"/>
      <path id="Path_3" data-name="Path 3" d="M20.44,33.29h5.053l1.058,23.78h.274l1-23.78h5.154l-3.3,36.852H23.724Z" transform="translate(-1.795 -2.924)" fill="#fff" fill-rule="evenodd"/>
      <path id="Path_4" data-name="Path 4" d="M41.935,52.811V64.67a2.591,2.591,0,0,0,.192,1.195.666.666,0,0,0,.62.328.611.611,0,0,0,.575-.274,2.928,2.928,0,0,0,.164-1.25v-8.3h5.336V65.29q0,2.737-1.341,3.868T42.7,70.316q-3.448,0-4.78-1.113T36.59,65.336v-27.2q0-2.8,1.341-3.922T42.7,33.09q3.448,0,4.8,1.122t1.323,3.922V52.82H41.935m0-4.087H43.5V38.025a.757.757,0,0,0-.219-.529.7.7,0,0,0-.52-.228.666.666,0,0,0-.62.328,2.481,2.481,0,0,0-.192,1.168Z" transform="translate(-3.213 -2.906)" fill="#fff" fill-rule="evenodd"/>
      <path id="Path_5" data-name="Path 5" d="M65.691,40.413V48.24H60.336V38.123a.775.775,0,0,0-.219-.52.648.648,0,0,0-.493-.246.693.693,0,0,0-.648.328,2.518,2.518,0,0,0-.192,1.177v31.26H53.44V33.371h5.345V34.6a4.479,4.479,0,0,1,1.441-1.122,3.859,3.859,0,0,1,1.715-.4,3.047,3.047,0,0,1,2.882,1.532Q65.691,36.153,65.691,40.413Z" transform="translate(-4.693 -2.904)" fill="#fff" fill-rule="evenodd"/>
      <path id="Path_6" data-name="Path 6" d="M81.268,38.124v32H75.914v-1.35a4.232,4.232,0,0,1-1.441,1.149,3.913,3.913,0,0,1-1.724.392,3.038,3.038,0,0,1-2.837-1.542Q69,67.232,69,62.954V54.471a5.473,5.473,0,0,1,.648-2.819,5.92,5.92,0,0,1,2.18-1.979L75.9,47.237V37.96a.675.675,0,0,0-.219-.483.721.721,0,0,0-.52-.219.675.675,0,0,0-.629.328,2.5,2.5,0,0,0-.192,1.168v6.869H69v-7.5q0-2.791,1.35-3.922T75.12,33.08q3.448,0,4.8,1.122t1.341,3.922M75.914,52.163l-.912.7a1.952,1.952,0,0,0-.474.593,1.706,1.706,0,0,0-.137.73V64.614a2.582,2.582,0,0,0,.164,1.231.666.666,0,0,0,.629.328.62.62,0,0,0,.575-.274,2.928,2.928,0,0,0,.164-1.25Z" transform="translate(-6.059 -2.905)" fill="#fff" fill-rule="evenodd"/>
    </g>
  </g>
</svg>
