<svg xmlns="http://www.w3.org/2000/svg" viewBox="0 0 103.66 103.67"><defs><style>.cls-1,.cls-4{fill:#fff;}.cls-2{fill:#004fa3;}.cls-2,.cls-4{fill-rule:evenodd;}.cls-3{fill:#f79239;}</style></defs><title>Asset 1</title><g id="Layer_2" data-name="Layer 2"><g id="Layer_1-2" data-name="Layer 1"><circle class="cls-1" cx="51.83" cy="51.83" r="51.83"/><path class="cls-2" d="M51.89,94.07A42.24,42.24,0,1,0,9.41,51.83,42.45,42.45,0,0,0,51.89,94.07Z"/><path class="cls-3" d="M51.89,97.25A45.42,45.42,0,1,1,97.56,51.83,45.6,45.6,0,0,1,51.89,97.25Zm0-84.48A39.06,39.06,0,1,0,91.2,51.83a39.23,39.23,0,0,0-39.3-39.06Z"/><polygon class="cls-4" points="20.44 33.29 25.98 33.29 27.14 59.36 27.44 59.36 28.54 33.29 34.19 33.29 30.57 73.69 24.04 73.69 20.44 33.29"/><path class="cls-4" d="M42.45,54.71v13a2.84,2.84,0,0,0,.21,1.31.73.73,0,0,0,.68.36.67.67,0,0,0,.63-.3,3.21,3.21,0,0,0,.18-1.37v-9.1H50v9.78q0,3-1.47,4.24T43.29,73.9q-3.78,0-5.24-1.22t-1.46-4.24V38.62q0-3.07,1.47-4.3t5.23-1.23q3.78,0,5.26,1.23T50,38.62v16.1H42.45m0-4.48h1.71V38.5a.83.83,0,0,0-.24-.58.77.77,0,0,0-.57-.25.73.73,0,0,0-.68.36,2.72,2.72,0,0,0-.21,1.28Z"/><path class="cls-4" d="M66.87,41.12V49.7H61V38.61a.85.85,0,0,0-.24-.57.71.71,0,0,0-.54-.27.76.76,0,0,0-.71.36,2.76,2.76,0,0,0-.21,1.29V73.69H53.44V33.4H59.3v1.35a4.91,4.91,0,0,1,1.58-1.23,4.23,4.23,0,0,1,1.88-.44,3.34,3.34,0,0,1,3.16,1.68Q66.87,36.45,66.87,41.12Z"/><path class="cls-4" d="M82.45,38.61V73.69H76.58V72.21A4.64,4.64,0,0,1,75,73.47a4.29,4.29,0,0,1-1.89.43A3.33,3.33,0,0,1,70,72.21Q69,70.52,69,65.83V56.53a6,6,0,0,1,.71-3.09,6.49,6.49,0,0,1,2.39-2.17l4.47-2.67V38.43a.74.74,0,0,0-.24-.53.79.79,0,0,0-.57-.24.74.74,0,0,0-.69.36,2.74,2.74,0,0,0-.21,1.28v7.53H69V38.61q0-3.06,1.48-4.3t5.23-1.23q3.78,0,5.26,1.23t1.47,4.3M76.58,54l-1,.77a2.14,2.14,0,0,0-.52.65,1.87,1.87,0,0,0-.15.8V67.65A2.83,2.83,0,0,0,75.09,69a.73.73,0,0,0,.69.36.68.68,0,0,0,.63-.3,3.21,3.21,0,0,0,.18-1.37Z"/></g></g></svg>